<svg width="18" height="20" viewBox="0 0 18 20" fill="none" xmlns="http://www.w3.org/2000/svg">
<path d="M15.6646 2.46882H13.813V0.308603C13.813 0.138871 13.6741 0 13.5044 0H12.8871C12.7174 0 12.5785 0.138871 12.5785 0.308603V2.46882H5.17208V0.308603C5.17208 0.138871 5.03321 0 4.86348 0H4.24627C4.07654 0 3.93767 0.138871 3.93767 0.308603V2.46882H2.08605C1.06381 2.46882 0.234436 3.29819 0.234436 4.32044V17.899C0.234436 18.9212 1.06381 19.7506 2.08605 19.7506H15.6646C16.6868 19.7506 17.5162 18.9212 17.5162 17.899V4.32044C17.5162 3.29819 16.6868 2.46882 15.6646 2.46882ZM16.2818 17.899C16.2818 18.2384 16.004 18.5162 15.6646 18.5162H2.08605C1.74659 18.5162 1.46885 18.2384 1.46885 17.899V7.40646H16.2818V17.899ZM16.2818 6.17205H1.46885V4.32044C1.46885 3.98097 1.74659 3.70323 2.08605 3.70323H15.6646C16.004 3.70323 16.2818 3.98097 16.2818 4.32044V6.17205ZM4.55487 14.8129H8.25811C8.59757 14.8129 8.87531 14.5352 8.87531 14.1957V10.4925C8.87531 10.153 8.59757 9.87529 8.25811 9.87529H4.55487C4.21541 9.87529 3.93767 10.153 3.93767 10.4925V14.1957C3.93767 14.5352 4.21541 14.8129 4.55487 14.8129ZM5.17208 11.1097H7.6409V13.5785H5.17208V11.1097Z" fill="#3F4949"/>
</svg>
