<svg width="20" height="20" viewBox="0 0 20 20" fill="none" xmlns="http://www.w3.org/2000/svg">
<path d="M9.87607 0.778259C4.59125 0.778259 0.309387 5.06012 0.309387 10.3449C0.309387 15.6298 4.59125 19.9116 9.87607 19.9116C15.1609 19.9116 19.4428 15.6298 19.4428 10.3449C19.4428 5.06012 15.1609 0.778259 9.87607 0.778259ZM18.2083 10.3449C18.2083 14.9238 14.5013 18.6772 9.87607 18.6772C5.29718 18.6772 1.5438 14.9701 1.5438 10.3449C1.5438 5.76605 5.25089 2.01267 9.87607 2.01267C14.455 2.01267 18.2083 5.71976 18.2083 10.3449ZM12.4645 13.7511L9.33216 11.4752C9.21257 11.3865 9.14314 11.2476 9.14314 11.101V4.9444C9.14314 4.6898 9.35145 4.48149 9.60604 4.48149H10.1461C10.4007 4.48149 10.609 4.6898 10.609 4.9444V10.588L13.3286 12.5669C13.5369 12.7173 13.5793 13.0066 13.4289 13.2149L13.1125 13.6508C12.9621 13.8553 12.6728 13.9016 12.4645 13.7511Z" fill="#3F4949"/>
</svg>
