<svg width="20" height="20" viewBox="0 0 20 20" fill="none" xmlns="http://www.w3.org/2000/svg">
<path d="M9.87529 0C4.41999 0 0 4.41999 0 9.87529C0 15.3306 4.41999 19.7506 9.87529 19.7506C15.3306 19.7506 19.7506 15.3306 19.7506 9.87529C19.7506 4.41999 15.3306 0 9.87529 0ZM9.87529 18.4763C5.13276 18.4763 1.27423 14.6178 1.27423 9.87529C1.27423 5.13276 5.13276 1.27423 9.87529 1.27423C14.6178 1.27423 18.4763 5.13276 18.4763 9.87529C18.4763 14.6178 14.6178 18.4763 9.87529 18.4763ZM11.48 9.66424L8.613 8.85988C8.13118 8.7245 7.79272 8.28648 7.79272 7.7967C7.79272 7.18746 8.30241 6.68971 8.92758 6.68971H10.7195C11.1654 6.68971 11.5915 6.83306 11.9379 7.09189C12.0654 7.18746 12.2406 7.17153 12.3521 7.06003L12.802 6.60211C12.9374 6.46672 12.9215 6.24373 12.7702 6.12427C12.1888 5.66236 11.4721 5.4115 10.7155 5.4115H10.5124V3.81871C10.5124 3.6435 10.3691 3.50015 10.1938 3.50015H9.55673C9.38152 3.50015 9.23817 3.6435 9.23817 3.81871V5.4115H8.92758C7.60158 5.4115 6.51849 6.47867 6.51849 7.79272C6.51849 8.85192 7.23922 9.79167 8.26657 10.0823L11.1336 10.8867C11.6154 11.0221 11.9539 11.4601 11.9539 11.9499C11.9539 12.5591 11.4442 13.0569 10.819 13.0569H9.02713C8.58115 13.0569 8.15508 12.9135 7.80864 12.6547C7.68122 12.5591 7.50601 12.5751 7.39452 12.6866L6.94456 13.1445C6.80917 13.2799 6.8251 13.5029 6.97641 13.6223C7.55778 14.0842 8.27453 14.3351 9.03111 14.3351H9.23817V15.9279C9.23817 16.1031 9.38152 16.2464 9.55673 16.2464H10.1938C10.3691 16.2464 10.5124 16.1031 10.5124 15.9279V14.3351H10.823C12.149 14.3351 13.2321 13.2679 13.2321 11.9539C13.2281 10.8947 12.5113 9.95493 11.48 9.66424Z" fill="#3F4949"/>
</svg>
