<svg width="30" height="18" viewBox="0 0 30 18" fill="none" xmlns="http://www.w3.org/2000/svg">
<path d="M28.695 4.21828L16.2731 0.202031C15.4383 -0.0675001 14.5622 -0.0675001 13.7273 0.202031L1.30547 4.21828C0.512812 4.47469 0 5.17406 0 6C0 6.82594 0.512812 7.52531 1.305 7.78172L2.69766 8.23172C2.54297 8.52141 2.42859 8.83313 2.35406 9.15984C1.85297 9.40266 1.5 9.90563 1.5 10.5C1.5 11.0967 1.85484 11.6025 2.35922 11.8439L1.51312 17.0873C1.43766 17.5556 1.69641 18 2.04469 18H3.95484C4.30312 18 4.56234 17.5556 4.48641 17.0873L3.64078 11.8439C4.14516 11.6025 4.5 11.0967 4.5 10.5C4.5 10.0031 4.24266 9.58406 3.87047 9.31078C3.94031 9.09234 4.04859 8.89547 4.17844 8.71031L6.68484 9.52078L6 15C6 16.657 10.0294 18 15 18C19.9706 18 24 16.657 24 15L23.3152 9.52078L28.695 7.78125C29.4872 7.52531 30 6.82594 30 6C30 5.17406 29.4872 4.47469 28.695 4.21828ZM22.4756 14.8997C21.9713 15.4308 19.4081 16.5 15 16.5C10.5919 16.5 8.02875 15.4308 7.52437 14.8997L8.13797 9.99047L13.7273 11.7975C13.8492 11.8369 14.933 12.2302 16.2731 11.7975L21.8625 9.99047L22.4756 14.8997ZM28.2319 6.35531L15.81 10.3716C15.2798 10.5431 14.7202 10.5431 14.19 10.3716L5.95547 7.70906L15.1378 5.98688C15.5452 5.91094 15.8133 5.51906 15.7369 5.11172C15.6609 4.70391 15.2606 4.43719 14.8622 4.51313L5.31 6.30375C4.72875 6.4125 4.20797 6.66234 3.75937 6.99891L1.76766 6.35484C1.39969 6.23531 1.41797 5.75766 1.76766 5.64469L14.1895 1.62844C14.8973 1.39969 15.4945 1.52672 15.8095 1.62844L28.2314 5.64469C28.5778 5.75672 28.6022 6.23531 28.2319 6.35531Z" fill="black"/>
</svg>
