<svg width="30" height="22" viewBox="0 0 30 22" fill="none" xmlns="http://www.w3.org/2000/svg">
<path d="M25.5 9.5C27.5719 9.5 29.25 7.82188 29.25 5.75C29.25 3.67812 27.5719 2 25.5 2C23.4281 2 21.75 3.67812 21.75 5.75C21.75 7.82188 23.4281 9.5 25.5 9.5ZM25.5 3.5C26.7422 3.5 27.75 4.50781 27.75 5.75C27.75 6.99219 26.7422 8 25.5 8C24.2578 8 23.25 6.99219 23.25 5.75C23.25 4.50781 24.2578 3.5 25.5 3.5ZM15 11C17.9016 11 20.25 8.65156 20.25 5.75C20.25 2.84844 17.9016 0.5 15 0.5C12.0984 0.5 9.75 2.84844 9.75 5.75C9.75 8.65156 12.0984 11 15 11ZM15 2C17.0672 2 18.75 3.68281 18.75 5.75C18.75 7.81719 17.0672 9.5 15 9.5C12.9328 9.5 11.25 7.81719 11.25 5.75C11.25 3.68281 12.9328 2 15 2ZM26.4375 11H24.5625C23.85 11 23.1891 11.225 22.6359 11.6047C23.0766 11.9047 23.475 12.2562 23.8266 12.6547C24.0562 12.5562 24.3047 12.5 24.5625 12.5H26.4375C27.5719 12.5 28.5 13.5078 28.5 14.75C28.5 15.1625 28.8375 15.5 29.25 15.5C29.6625 15.5 30 15.1625 30 14.75C30 12.6828 28.4016 11 26.4375 11ZM4.5 9.5C6.57188 9.5 8.25 7.82188 8.25 5.75C8.25 3.67812 6.57188 2 4.5 2C2.42812 2 0.75 3.67812 0.75 5.75C0.75 7.82188 2.42812 9.5 4.5 9.5ZM4.5 3.5C5.74219 3.5 6.75 4.50781 6.75 5.75C6.75 6.99219 5.74219 8 4.5 8C3.25781 8 2.25 6.99219 2.25 5.75C2.25 4.50781 3.25781 3.5 4.5 3.5ZM18.7547 11.9375C17.1891 11.9375 16.8 12.5 15 12.5C13.2 12.5 12.8109 11.9375 11.2453 11.9375C9.54375 11.9375 7.88906 12.6969 6.91875 14.1359C6.3375 14.9984 6 16.0344 6 17.15V19.25C6 20.4922 7.00781 21.5 8.25 21.5H21.75C22.9922 21.5 24 20.4922 24 19.25V17.15C24 16.0344 23.6625 14.9984 23.0812 14.1359C22.1109 12.6969 20.4563 11.9375 18.7547 11.9375ZM22.5 19.25C22.5 19.6625 22.1625 20 21.75 20H8.25C7.8375 20 7.5 19.6625 7.5 19.25V17.15C7.5 16.3719 7.72969 15.6172 8.16094 14.975C8.80781 14.0141 9.96094 13.4375 11.2406 13.4375C12.525 13.4375 12.9844 14 15 14C17.0156 14 17.475 13.4375 18.7547 13.4375C20.0344 13.4375 21.1875 14.0141 21.8344 14.975C22.2656 15.6172 22.4953 16.3719 22.4953 17.15V19.25H22.5ZM7.36406 11.6047C6.80625 11.225 6.14531 11 5.4375 11H3.5625C1.59844 11 0 12.6828 0 14.75C0 15.1625 0.3375 15.5 0.75 15.5C1.1625 15.5 1.5 15.1625 1.5 14.75C1.5 13.5078 2.42812 12.5 3.5625 12.5H5.4375C5.69531 12.5 5.94375 12.5562 6.17344 12.6547C6.525 12.2562 6.92813 11.9047 7.36406 11.6047Z" fill="black"/>
</svg>
